<svg width="203" height="208" viewBox="0 0 203 208" fill="none" xmlns="http://www.w3.org/2000/svg">
<path d="M78.6153 44.9501C78.6153 44.9501 1.26044 49.173 7.40054 134.719C13.5407 220.266 93.4438 219.457 119.497 186.675C145.55 153.893 205.544 170.874 202.794 110.274C200.044 49.6743 120.084 38.3352 78.6153 44.9501Z" fill="#EEF2F9"/>
<path d="M66.2793 49.7139V191.976H69.2495V49.9591L66.2793 49.7139Z" fill="#1A1A1A" stroke="#1A1A1A" stroke-miterlimit="10" stroke-linecap="round" stroke-linejoin="round"/>
<path d="M58.7212 49.7139V191.976H66.2966V49.9591L58.7212 49.7139Z" fill="white" stroke="#1A1A1A" stroke-miterlimit="10" stroke-linecap="round" stroke-linejoin="round"/>
<path d="M180.886 134.189L198.272 121.527L195.574 141.919L191.132 133.044L180.886 134.189Z" fill="white" stroke="#1A1A1A" stroke-miterlimit="10" stroke-linecap="round" stroke-linejoin="round"/>
<path d="M171.694 83.8582L177.807 69.77L183.529 83.295L177.58 79.4437L171.694 83.8582Z" fill="#1A1A1A" stroke="#1A1A1A" stroke-miterlimit="10" stroke-linecap="round" stroke-linejoin="round"/>
<path d="M9.58105 136.851C9.58105 136.851 10.0352 136.987 10.8981 137.223" stroke="#1A1A1A" stroke-width="2" stroke-linecap="round" stroke-linejoin="round"/>
<path d="M13.5498 137.913C38.3654 144.308 170.9 173.956 162.316 75.5654C153.759 -22.4615 74.0173 2.26325 58.6665 7.95848" stroke="#1A1A1A" stroke-linecap="round" stroke-linejoin="round" stroke-dasharray="12.02 12.02"/>
<path d="M57.3859 8.44922C56.5593 8.77622 56.1143 8.96697 56.1143 8.96697" stroke="#1A1A1A" stroke-width="2" stroke-linecap="round" stroke-linejoin="round"/>
<path d="M2.87762 127.14L23.0789 139.92L0.897461 145.361L8.24584 137.214L2.87762 127.14Z" fill="white" stroke="#1A1A1A" stroke-miterlimit="10" stroke-linecap="round" stroke-linejoin="round"/>
<path d="M100.009 153.59L163.372 131.68L148.304 88.1042L84.9413 110.014L100.009 153.59Z" fill="white" stroke="#1A1A1A" stroke-miterlimit="10" stroke-linecap="round" stroke-linejoin="round"/>
<path d="M85.3933 111.308L119.683 124.588L132.272 118.957L148.695 89.236L148.304 88.1006L84.9482 110.009L85.3933 111.308Z" fill="#1A1A1A" stroke="#1A1A1A" stroke-miterlimit="10" stroke-linecap="round" stroke-linejoin="round"/>
<path d="M146.033 123.889L163.373 131.682L100.008 153.591L108.474 136.878L122.262 115.377L146.033 123.889Z" fill="white" stroke="#1A1A1A" stroke-miterlimit="10" stroke-linecap="round" stroke-linejoin="round"/>
<path d="M148.304 88.1006L125.596 124.997L84.9482 110.009L148.304 88.1006Z" fill="white" stroke="#1A1A1A" stroke-miterlimit="10" stroke-linecap="round" stroke-linejoin="round"/>
<path d="M86.6889 8.95752C78.5139 8.95752 71.8922 15.5792 71.8922 23.7542V49.9504H20.9531V23.7542C20.9531 15.5792 27.5748 8.95752 35.7498 8.95752H86.6889Z" fill="#2F85E7" stroke="#1A1A1A" stroke-miterlimit="10" stroke-linecap="round" stroke-linejoin="round"/>
<path d="M101.485 23.5271V49.7597H71.8921V23.5271C71.8921 15.4793 78.5138 8.95752 86.6888 8.95752C94.8637 8.95752 101.485 15.4793 101.485 23.5271Z" fill="white" stroke="#1A1A1A" stroke-miterlimit="10" stroke-linecap="round" stroke-linejoin="round"/>
<path d="M73.8994 47.7522V23.527C73.8994 16.5965 79.64 10.9648 86.6887 10.9648C93.7464 10.9648 99.478 16.6056 99.478 23.527V47.7522H73.8994Z" fill="white" stroke="#1A1A1A" stroke-miterlimit="10" stroke-linecap="round" stroke-linejoin="round"/>
<path d="M95.463 20.9473H79.3765V23.1636H95.463V20.9473Z" fill="#1A1A1A" stroke="#1A1A1A" stroke-width="2" stroke-miterlimit="10" stroke-linecap="round" stroke-linejoin="round"/>
<path d="M87.6427 15.1343H90.622V17.1326C90.622 17.1326 87.7608 17.1508 87.6427 17.1326C86.9069 17.0145 86.9251 15.1343 87.6427 15.1343Z" fill="white" stroke="#1A1A1A" stroke-width="2" stroke-miterlimit="10" stroke-linecap="round" stroke-linejoin="round"/>
<path d="M90.7855 17.4957C91.6483 17.4957 92.3478 16.7963 92.3478 15.9334C92.3478 15.0706 91.6483 14.3711 90.7855 14.3711C89.9226 14.3711 89.2231 15.0706 89.2231 15.9334C89.2231 16.7963 89.9226 17.4957 90.7855 17.4957Z" fill="white" stroke="#1A1A1A" stroke-width="2" stroke-miterlimit="10" stroke-linecap="round" stroke-linejoin="round"/>
<path d="M34.2324 179.215L34.9409 204.13L120.733 200.633L34.2324 179.215Z" fill="#1A1A1A" stroke="#1A1A1A" stroke-miterlimit="10" stroke-linecap="round" stroke-linejoin="round"/>
<path d="M33.6602 177.616L120.733 200.633L4.29395 187.671L33.6602 177.616Z" fill="white" stroke="#1A1A1A" stroke-miterlimit="10" stroke-linecap="round" stroke-linejoin="round"/>
<path d="M48.8838 174.673L120.733 200.633L47.1489 181.186L48.8838 174.673Z" fill="#1A1A1A" stroke="#1A1A1A" stroke-miterlimit="10" stroke-linecap="round" stroke-linejoin="round"/>
<path d="M59.9931 162.384L48.8843 174.674L120.733 200.634L59.9931 162.384Z" fill="white" stroke="#1A1A1A" stroke-miterlimit="10" stroke-linecap="round" stroke-linejoin="round"/>
</svg>
